<svg xmlns="http://www.w3.org/2000/svg" xmlns:xlink="http://www.w3.org/1999/xlink" width="500" zoomAndPan="magnify" viewBox="0 0 375 374.999991" height="500" preserveAspectRatio="xMidYMid meet" version="1.0"><defs><g/><clipPath id="3c87b4beda"><path d="M 14.445312 178.847656 L 73.183594 178.847656 L 73.183594 237.65625 L 14.445312 237.65625 Z M 14.445312 178.847656 " clip-rule="nonzero"/></clipPath><clipPath id="c067cdc50f"><path d="M 301.65625 178.847656 L 360.550781 178.847656 L 360.550781 237.65625 L 301.65625 237.65625 Z M 301.65625 178.847656 " clip-rule="nonzero"/></clipPath><clipPath id="f1d5dd977a"><path d="M 49 27.464844 L 326 27.464844 L 326 337.613281 L 49 337.613281 Z M 49 27.464844 " clip-rule="nonzero"/></clipPath><clipPath id="2337307ab9"><path d="M 72 52.1875 L 303 52.1875 L 303 309.714844 L 72 309.714844 Z M 72 52.1875 " clip-rule="nonzero"/></clipPath><clipPath id="5c52df1ab5"><path d="M 118.441406 134.628906 L 256.4375 134.628906 L 256.4375 272.625 L 118.441406 272.625 Z M 118.441406 134.628906 " clip-rule="nonzero"/></clipPath><clipPath id="b30e553b16"><path d="M 14.289062 108.851562 L 360.710938 108.851562 L 360.710938 180.933594 L 14.289062 180.933594 Z M 14.289062 108.851562 " clip-rule="nonzero"/></clipPath><clipPath id="6c3f4332cb"><path d="M 23.644531 117.921875 L 351.355469 117.921875 L 351.355469 171.859375 L 23.644531 171.859375 Z M 23.644531 117.921875 " clip-rule="nonzero"/></clipPath><clipPath id="6bf1538626"><path d="M 242 76.375 L 256.449219 76.375 L 256.449219 102 L 242 102 Z M 242 76.375 " clip-rule="nonzero"/></clipPath><clipPath id="62c6cdb8d6"><path d="M 241.117188 98 L 245 98 L 245 102.164062 L 241.117188 102.164062 Z M 241.117188 98 " clip-rule="nonzero"/></clipPath></defs><g clip-path="url(#3c87b4beda)"><path fill="#00bf63" d="M 73.335938 180.261719 L 73.335938 236.433594 L 73.339844 236.433594 C 73.339844 237.140625 72.765625 237.714844 72.0625 237.714844 C 71.703125 237.714844 71.382812 237.566406 71.152344 237.332031 L 14.941406 181.054688 C 14.441406 180.554688 14.441406 179.746094 14.941406 179.246094 C 15.191406 178.996094 15.519531 178.871094 15.84375 178.871094 L 72.0625 178.871094 C 72.769531 178.871094 73.339844 179.445312 73.339844 180.148438 C 73.339844 180.1875 73.339844 180.226562 73.335938 180.261719 " fill-opacity="1" fill-rule="nonzero"/></g><g clip-path="url(#c067cdc50f)"><path fill="#00bf63" d="M 301.660156 180.261719 L 301.660156 236.433594 L 301.65625 236.433594 C 301.65625 237.140625 302.230469 237.714844 302.933594 237.714844 C 303.292969 237.714844 303.613281 237.566406 303.84375 237.332031 L 360.054688 181.054688 C 360.554688 180.554688 360.554688 179.746094 360.054688 179.246094 C 359.804688 178.996094 359.476562 178.871094 359.152344 178.871094 L 302.933594 178.871094 C 302.226562 178.871094 301.65625 179.445312 301.65625 180.148438 C 301.65625 180.1875 301.660156 180.226562 301.660156 180.261719 " fill-opacity="1" fill-rule="nonzero"/></g><g clip-path="url(#f1d5dd977a)"><path fill="#00bf63" d="M 316.785156 53.308594 C 256.476562 27.464844 187.554688 27.464844 187.554688 27.464844 C 187.554688 27.464844 118.632812 27.464844 58.328125 53.308594 C 32.480469 182.539062 58.328125 294.535156 187.554688 337.613281 C 316.785156 294.535156 342.628906 182.539062 316.785156 53.308594 Z M 316.785156 53.308594 " fill-opacity="1" fill-rule="nonzero"/></g><path fill="#ffffff" d="M 187.554688 319.382812 C 87.722656 283.585938 49.375 198.3125 73.492188 65.75 C 127.792969 44.945312 186.933594 44.695312 187.554688 44.695312 C 188.167969 44.695312 247.5 45.039062 301.621094 65.75 C 325.734375 198.3125 287.390625 283.585938 187.554688 319.382812 Z M 187.554688 319.382812 " fill-opacity="1" fill-rule="nonzero"/><path fill="#ffffff" d="M 301.621094 65.75 C 247.5 45.039062 188.167969 44.695312 187.554688 44.695312 L 187.554688 319.382812 C 287.390625 283.585938 325.734375 198.3125 301.621094 65.75 Z M 301.621094 65.75 " fill-opacity="1" fill-rule="nonzero"/><g clip-path="url(#2337307ab9)"><path fill="#033e6a" d="M 294.824219 73.648438 C 244.746094 52.1875 187.519531 52.1875 187.519531 52.1875 C 187.519531 52.1875 130.292969 52.1875 80.214844 73.648438 C 58.757812 180.953125 80.214844 273.949219 187.519531 309.714844 C 294.824219 273.949219 316.285156 180.953125 294.824219 73.648438 Z M 294.824219 73.648438 " fill-opacity="1" fill-rule="nonzero"/></g><path fill="#ffffff" d="M 187.519531 294.578125 C 104.625 264.855469 72.785156 194.050781 92.808594 83.976562 C 137.894531 66.703125 187.003906 66.496094 187.519531 66.496094 C 188.027344 66.496094 237.292969 66.78125 282.234375 83.976562 C 302.253906 194.050781 270.414062 264.855469 187.519531 294.578125 Z M 187.519531 294.578125 " fill-opacity="1" fill-rule="nonzero"/><path fill="#ffffff" d="M 282.234375 83.976562 C 237.292969 66.78125 188.027344 66.496094 187.519531 66.496094 L 187.519531 294.578125 C 270.414062 264.855469 302.253906 194.050781 282.234375 83.976562 Z M 282.234375 83.976562 " fill-opacity="1" fill-rule="nonzero"/><g clip-path="url(#5c52df1ab5)"><path fill="#00bf63" d="M 122.464844 193.039062 C 124.859375 194.171875 127.234375 195.335938 129.683594 196.578125 C 129.066406 203.03125 128.675781 209.550781 128.523438 215.96875 C 126.769531 216.960938 125.058594 217.914062 123.375 218.832031 C 122.207031 213.878906 121.617188 208.777344 121.617188 203.648438 C 121.617188 200.089844 121.902344 196.527344 122.464844 193.039062 Z M 188.976562 228.882812 L 189.738281 228.421875 C 195.261719 225.078125 200.953125 221.632812 206.539062 218.300781 C 213.335938 222.394531 218.949219 225.707031 224.105469 228.6875 C 224.003906 235.484375 223.746094 242.375 223.328125 249.1875 C 218.152344 252.445312 212.515625 256.066406 205.65625 260.523438 C 200.109375 257.171875 194.390625 253.648438 188.976562 250.300781 Z M 185.867188 228.855469 L 185.867188 250.277344 C 180.816406 253.402344 174.953125 257.019531 169.179688 260.5 C 162.503906 256.160156 156.867188 252.542969 151.523438 249.167969 C 151.097656 242.316406 150.835938 235.421875 150.742188 228.660156 C 156.050781 225.59375 161.652344 222.285156 168.304688 218.269531 C 173.695312 221.488281 179.175781 224.804688 184.511719 228.03125 Z M 149.976562 251.867188 C 155.117188 255.105469 160.757812 258.722656 167.640625 263.195312 C 167.691406 264.3125 167.742188 265.4375 167.792969 266.558594 C 159.59375 263.988281 152.082031 259.890625 145.4375 254.363281 C 146.910156 253.5625 148.421875 252.730469 149.976562 251.867188 Z M 169.78125 146.859375 C 163.710938 151.425781 158.308594 155.429688 153.296875 159.078125 C 149.972656 157.207031 146.945312 155.566406 144.085938 154.09375 C 151.65625 147.449219 160.695312 142.597656 170.367188 139.992188 C 170.164062 142.285156 169.964844 144.578125 169.78125 146.859375 Z M 185.890625 180.839844 L 180.265625 184.402344 C 176.464844 186.8125 172.609375 189.257812 168.714844 191.710938 C 162.589844 188.070312 157.28125 184.996094 152.515625 182.328125 C 153.140625 175.460938 153.933594 168.554688 154.875 161.78125 C 160.070312 157.992188 165.46875 153.992188 171.347656 149.570312 C 176.21875 152.796875 181.367188 156.292969 185.890625 159.363281 Z M 167.164062 194.402344 C 166.957031 201.292969 166.824219 208.414062 166.773438 215.578125 C 160.238281 219.515625 154.628906 222.832031 149.203125 225.96875 C 142.875 222.25 137.117188 218.972656 131.632812 215.980469 C 131.785156 209.542969 132.179688 203.023438 132.804688 196.585938 C 138.402344 193.121094 144.351562 189.324219 150.949219 185.003906 C 155.78125 187.707031 161.097656 190.792969 167.164062 194.402344 Z M 222.363281 182.332031 C 217.605469 184.992188 212.296875 188.0625 206.167969 191.710938 C 202.195312 189.210938 198.269531 186.71875 194.398438 184.261719 L 188.992188 180.839844 L 188.992188 159.363281 C 193.519531 156.285156 198.675781 152.792969 203.542969 149.5625 C 209.390625 153.960938 214.785156 157.960938 220.007812 161.769531 C 220.949219 168.546875 221.742188 175.460938 222.363281 182.332031 Z M 221.558594 159.0625 C 216.515625 155.386719 211.117188 151.386719 205.089844 146.847656 C 204.902344 144.566406 204.707031 142.277344 204.5 139.984375 C 214.160156 142.589844 223.191406 147.429688 230.769531 154.070312 C 227.878906 155.558594 224.84375 157.199219 221.558594 159.0625 Z M 208.109375 215.582031 C 208.0625 208.542969 207.929688 201.421875 207.71875 194.398438 C 213.160156 191.160156 218.082031 188.296875 222.820312 185.625 L 223.9375 185 C 230.488281 189.292969 236.4375 193.089844 242.082031 196.585938 C 242.710938 203.066406 243.101562 209.585938 243.253906 215.980469 C 237.757812 218.984375 232 222.257812 225.6875 225.96875 C 220.367188 222.902344 214.753906 219.582031 208.109375 215.582031 Z M 207.222656 263.210938 C 214.054688 258.769531 219.695312 255.148438 224.898438 251.871094 C 226.453125 252.738281 227.960938 253.570312 229.429688 254.371094 C 222.78125 259.902344 215.269531 263.996094 207.066406 266.566406 C 207.117188 265.445312 207.171875 264.324219 207.222656 263.210938 Z M 246.359375 215.96875 C 246.210938 209.5625 245.824219 203.046875 245.203125 196.578125 C 247.648438 195.335938 250.023438 194.175781 252.414062 193.042969 C 252.976562 196.53125 253.261719 200.09375 253.261719 203.648438 C 253.261719 208.78125 252.671875 213.886719 251.507812 218.832031 C 249.824219 217.910156 248.117188 216.960938 246.359375 215.96875 Z M 187.441406 134.640625 C 149.4375 134.640625 118.515625 165.597656 118.515625 203.648438 C 118.515625 241.699219 149.4375 272.65625 187.441406 272.65625 C 225.449219 272.65625 256.363281 241.699219 256.363281 203.648438 C 256.363281 165.597656 225.449219 134.640625 187.441406 134.640625 " fill-opacity="1" fill-rule="nonzero"/></g><g clip-path="url(#b30e553b16)"><path fill="#00bf63" d="M 14.289062 108.851562 L 360.617188 108.851562 L 360.617188 180.882812 L 14.289062 180.882812 Z M 14.289062 108.851562 " fill-opacity="1" fill-rule="nonzero"/></g><g clip-path="url(#6c3f4332cb)"><path fill="#ffffff" d="M 23.644531 117.921875 L 351.351562 117.921875 L 351.351562 171.773438 L 23.644531 171.773438 Z M 23.644531 117.921875 " fill-opacity="1" fill-rule="nonzero"/></g><g clip-path="url(#6bf1538626)"><path fill="#000000" d="M 244.324219 76.445312 C 244.027344 76.554688 243.855469 76.644531 243.785156 76.730469 C 243.679688 76.859375 243.40625 77.46875 243.371094 77.652344 C 243.351562 77.761719 243.347656 77.980469 243.359375 78.207031 C 243.375 78.507812 243.394531 78.59375 243.449219 78.671875 C 243.496094 78.730469 243.527344 78.84375 243.539062 78.972656 C 243.554688 79.117188 243.589844 79.222656 243.65625 79.328125 C 243.796875 79.558594 243.8125 79.589844 243.933594 79.878906 L 244.046875 80.148438 L 243.839844 80.246094 C 243.726562 80.300781 243.550781 80.414062 243.449219 80.496094 C 243.347656 80.578125 243.195312 80.6875 243.113281 80.730469 C 242.914062 80.851562 242.777344 81.015625 242.636719 81.300781 C 242.539062 81.515625 242.527344 81.578125 242.527344 81.773438 C 242.527344 81.964844 242.550781 82.046875 242.664062 82.3125 L 242.796875 82.625 L 242.792969 83.25 C 242.789062 83.742188 242.777344 83.929688 242.730469 84.144531 C 242.671875 84.390625 242.664062 84.554688 242.664062 85.96875 C 242.664062 88.042969 242.675781 87.875 242.511719 88.3125 C 242.4375 88.515625 242.324219 88.78125 242.261719 88.898438 L 242.148438 89.121094 L 242.234375 89.234375 C 242.304688 89.324219 242.324219 89.402344 242.351562 89.625 C 242.367188 89.78125 242.398438 89.933594 242.414062 89.960938 C 242.429688 89.996094 242.519531 90.0625 242.617188 90.117188 C 242.746094 90.195312 242.828125 90.21875 242.953125 90.21875 C 243.089844 90.21875 243.117188 90.207031 243.117188 90.160156 C 243.117188 90.074219 243.054688 90.023438 242.953125 90.023438 C 242.902344 90.023438 242.820312 89.988281 242.773438 89.941406 L 242.683594 89.867188 L 242.875 89.859375 C 242.984375 89.855469 243.085938 89.859375 243.101562 89.863281 C 243.253906 89.90625 243.335938 89.898438 243.355469 89.835938 C 243.371094 89.800781 243.417969 89.765625 243.472656 89.753906 C 243.605469 89.726562 243.605469 89.613281 243.476562 89.5625 C 243.410156 89.539062 243.375 89.496094 243.363281 89.433594 C 243.332031 89.269531 243.339844 89.253906 243.472656 89.214844 C 243.578125 89.179688 243.601562 89.160156 243.59375 89.105469 C 243.589844 89.070312 243.554688 89.023438 243.511719 89.003906 C 243.445312 88.972656 243.445312 88.960938 243.488281 88.925781 C 243.554688 88.871094 243.550781 88.804688 243.472656 88.78125 C 243.421875 88.765625 243.40625 88.730469 243.40625 88.609375 C 243.40625 88.527344 243.386719 88.378906 243.363281 88.285156 C 243.328125 88.152344 243.324219 88.015625 243.34375 87.625 C 243.371094 87.136719 243.433594 86.8125 243.566406 86.457031 C 243.652344 86.226562 243.878906 85.199219 243.9375 84.777344 C 243.984375 84.433594 244.035156 84.226562 244.085938 84.167969 C 244.121094 84.128906 244.304688 84.542969 244.378906 84.820312 C 244.414062 84.957031 244.453125 85.207031 244.46875 85.378906 C 244.488281 85.546875 244.519531 85.730469 244.539062 85.78125 C 244.582031 85.890625 244.628906 86.554688 244.644531 87.414062 C 244.652344 87.777344 244.671875 88.0625 244.695312 88.136719 C 244.734375 88.246094 244.730469 88.265625 244.679688 88.296875 C 244.535156 88.378906 244.496094 88.445312 244.515625 88.566406 C 244.53125 88.671875 244.523438 88.691406 244.4375 88.738281 C 244.324219 88.804688 244.320312 88.84375 244.421875 89.035156 L 244.503906 89.1875 L 244.371094 89.363281 C 244.222656 89.558594 244.175781 89.773438 244.242188 89.90625 C 244.273438 89.964844 244.269531 90.007812 244.210938 90.15625 C 244.171875 90.25 244.101562 90.460938 244.050781 90.621094 C 244 90.78125 243.921875 91.003906 243.875 91.117188 C 243.78125 91.339844 243.78125 91.449219 243.875 91.726562 C 243.902344 91.804688 243.9375 92.082031 243.957031 92.355469 C 244.019531 93.261719 244.023438 93.289062 244.152344 93.5 C 244.214844 93.601562 244.378906 93.933594 244.515625 94.230469 C 244.652344 94.53125 244.8125 94.855469 244.871094 94.949219 C 245.027344 95.179688 245.964844 96.105469 246.320312 96.375 C 246.582031 96.574219 246.617188 96.617188 246.75 96.867188 C 246.832031 97.019531 246.925781 97.191406 246.96875 97.253906 C 247.035156 97.351562 247.039062 97.367188 246.992188 97.441406 C 246.949219 97.503906 246.945312 97.539062 246.980469 97.664062 C 247.019531 97.800781 247.015625 97.8125 246.945312 97.894531 C 246.886719 97.957031 246.882812 97.972656 246.925781 97.957031 C 246.960938 97.945312 246.980469 97.953125 246.980469 97.980469 C 246.980469 98.003906 247.015625 98.058594 247.0625 98.109375 C 247.113281 98.164062 247.144531 98.234375 247.144531 98.300781 C 247.144531 98.40625 247.164062 98.5 247.253906 98.726562 L 247.300781 98.855469 L 247.304688 98.679688 C 247.304688 98.578125 247.316406 98.515625 247.332031 98.535156 C 247.367188 98.574219 247.472656 98.945312 247.546875 99.273438 C 247.679688 99.902344 247.964844 100.324219 248.257812 100.324219 C 248.359375 100.324219 248.589844 100.191406 248.71875 100.050781 C 248.761719 100.007812 248.824219 99.96875 248.859375 99.96875 C 248.910156 99.96875 248.921875 99.953125 248.902344 99.867188 C 248.878906 99.753906 248.925781 99.644531 248.992188 99.644531 C 249.054688 99.644531 249.058594 99.507812 249 99.457031 C 248.976562 99.4375 248.957031 99.347656 248.953125 99.253906 C 248.949219 99.140625 248.90625 98.992188 248.800781 98.761719 C 248.628906 98.375 248.570312 98.175781 248.539062 97.929688 C 248.519531 97.761719 248.523438 97.746094 248.589844 97.726562 C 248.667969 97.699219 248.683594 97.566406 248.609375 97.496094 C 248.535156 97.425781 248.546875 97.265625 248.625 97.222656 C 248.703125 97.183594 248.703125 97.121094 248.628906 97.050781 C 248.59375 97.015625 248.554688 96.945312 248.546875 96.886719 C 248.503906 96.675781 248.265625 96.472656 247.875 96.324219 C 247.660156 96.238281 247.652344 96.230469 247.546875 96.027344 C 247.492188 95.914062 247.289062 95.527344 247.097656 95.164062 C 246.851562 94.703125 246.730469 94.433594 246.6875 94.261719 C 246.613281 93.96875 246.4375 93.621094 246.15625 93.199219 C 246.042969 93.03125 245.96875 92.898438 245.980469 92.898438 C 245.996094 92.898438 246.027344 92.921875 246.050781 92.949219 C 246.121094 93.03125 246.410156 93.164062 246.539062 93.167969 C 246.628906 93.167969 246.683594 93.148438 246.746094 93.085938 L 246.832031 92.996094 L 246.777344 92.773438 C 246.722656 92.566406 246.722656 92.546875 246.777344 92.335938 C 246.828125 92.148438 246.851562 92.109375 246.933594 92.074219 C 246.984375 92.050781 247.179688 91.894531 247.359375 91.722656 C 247.675781 91.429688 247.691406 91.414062 247.785156 91.449219 C 247.867188 91.476562 248.460938 92.058594 248.949219 92.585938 C 249.046875 92.691406 249.214844 92.847656 249.324219 92.941406 C 249.4375 93.027344 249.578125 93.167969 249.632812 93.253906 C 249.835938 93.546875 249.992188 93.734375 250.046875 93.738281 C 250.078125 93.738281 250.140625 93.8125 250.203125 93.925781 C 250.257812 94.03125 250.417969 94.261719 250.5625 94.433594 C 250.859375 94.800781 251.015625 95.027344 251.167969 95.304688 C 251.226562 95.410156 251.332031 95.566406 251.40625 95.65625 C 251.480469 95.746094 251.558594 95.859375 251.578125 95.90625 C 251.597656 95.957031 251.691406 96.042969 251.785156 96.105469 C 252.074219 96.296875 252.246094 96.476562 252.320312 96.683594 C 252.433594 96.984375 252.539062 97.179688 252.886719 97.707031 C 253.070312 97.984375 253.335938 98.390625 253.480469 98.609375 C 253.757812 99.035156 253.824219 99.195312 253.871094 99.574219 C 253.902344 99.828125 254.003906 100.09375 254.101562 100.183594 C 254.132812 100.210938 254.171875 100.289062 254.179688 100.351562 C 254.195312 100.417969 254.261719 100.578125 254.332031 100.710938 C 254.601562 101.214844 254.710938 101.441406 254.730469 101.5625 C 254.769531 101.804688 254.78125 101.808594 255.539062 101.808594 C 255.90625 101.808594 256.261719 101.800781 256.328125 101.789062 C 256.441406 101.769531 256.449219 101.761719 256.449219 101.652344 C 256.449219 101.503906 256.359375 101.316406 256.050781 100.800781 C 255.914062 100.578125 255.804688 100.386719 255.804688 100.371094 C 255.804688 100.363281 255.832031 100.371094 255.863281 100.386719 C 255.898438 100.40625 255.953125 100.410156 255.980469 100.402344 C 256.050781 100.371094 255.988281 100.304688 255.867188 100.277344 C 255.800781 100.265625 255.75 100.222656 255.703125 100.144531 C 255.664062 100.085938 255.625 100.035156 255.605469 100.035156 C 255.539062 100.035156 255.25 99.722656 255.1875 99.585938 C 255.152344 99.507812 255.089844 99.390625 255.042969 99.328125 C 254.894531 99.136719 254.742188 98.703125 254.742188 98.480469 C 254.742188 98.246094 254.582031 97.65625 254.355469 97.042969 C 254.121094 96.425781 254.019531 96.210938 253.789062 95.863281 C 253.675781 95.691406 253.554688 95.488281 253.519531 95.410156 C 253.484375 95.324219 253.390625 95.210938 253.28125 95.117188 C 253.183594 95.03125 253.09375 94.933594 253.082031 94.898438 C 253.074219 94.867188 253.035156 94.828125 253.003906 94.820312 C 252.894531 94.78125 252.402344 93.882812 252.308594 93.550781 C 252.246094 93.328125 252.261719 93.253906 252.371094 93.253906 C 252.566406 93.253906 253.226562 92.992188 253.226562 92.914062 C 253.226562 92.824219 253.039062 92.410156 252.929688 92.261719 C 252.867188 92.175781 252.730469 91.921875 252.621094 91.699219 C 252.519531 91.476562 252.347656 91.167969 252.238281 91.003906 C 252.132812 90.847656 252.007812 90.644531 251.960938 90.550781 C 251.847656 90.347656 251.75 90.246094 251.523438 90.128906 L 251.351562 90.03125 L 251.347656 89.804688 C 251.34375 89.609375 251.332031 89.5625 251.265625 89.496094 C 251.152344 89.371094 251.003906 89.332031 250.871094 89.386719 L 250.761719 89.433594 L 250.71875 89.1875 C 250.699219 89.050781 250.675781 88.867188 250.671875 88.78125 C 250.648438 88.320312 250.351562 87.289062 250.097656 86.78125 C 250.0625 86.710938 249.980469 86.5 249.910156 86.3125 C 249.84375 86.125 249.761719 85.890625 249.726562 85.792969 C 249.582031 85.398438 249.464844 84.957031 249.449219 84.746094 C 249.433594 84.617188 249.390625 84.367188 249.347656 84.179688 C 249.261719 83.820312 249.140625 83.199219 249.140625 83.105469 C 249.140625 83.050781 249.144531 83.050781 249.261719 83.109375 C 249.429688 83.199219 249.859375 83.332031 250.054688 83.355469 C 250.148438 83.367188 250.316406 83.414062 250.441406 83.457031 C 250.84375 83.59375 251.234375 83.542969 251.285156 83.34375 C 251.316406 83.222656 251.269531 82.800781 251.214844 82.695312 C 251.140625 82.550781 250.859375 82.179688 250.765625 82.105469 C 250.71875 82.070312 250.648438 81.972656 250.605469 81.890625 C 250.5 81.6875 250.226562 81.429688 249.816406 81.160156 C 249.691406 81.078125 249.589844 80.984375 249.589844 80.960938 C 249.589844 80.898438 249.207031 80.5 248.972656 80.316406 C 248.867188 80.238281 248.785156 80.15625 248.785156 80.136719 C 248.785156 80.085938 248.5 79.78125 248.390625 79.71875 C 248.339844 79.6875 248.207031 79.65625 248.097656 79.644531 C 247.988281 79.628906 247.828125 79.589844 247.738281 79.550781 C 247.601562 79.488281 247.527344 79.476562 247.253906 79.488281 C 247.078125 79.496094 246.890625 79.511719 246.835938 79.527344 C 246.769531 79.546875 246.710938 79.539062 246.648438 79.507812 C 246.597656 79.480469 246.53125 79.464844 246.5 79.476562 C 246.324219 79.519531 246.140625 78.996094 246.242188 78.738281 C 246.3125 78.554688 246.335938 78.21875 246.3125 77.882812 C 246.285156 77.585938 246.265625 77.507812 246.15625 77.269531 C 246.007812 76.949219 245.875 76.789062 245.648438 76.644531 C 245.347656 76.453125 245.15625 76.386719 244.839844 76.375 C 244.59375 76.367188 244.519531 76.375 244.324219 76.445312 Z M 244.324219 76.445312 " fill-opacity="1" fill-rule="nonzero"/></g><g clip-path="url(#62c6cdb8d6)"><path fill="#000000" d="M 242.714844 98.453125 C 242.011719 98.578125 241.480469 99.050781 241.230469 99.773438 C 241.140625 100.035156 241.152344 100.554688 241.246094 100.839844 C 241.453125 101.441406 241.867188 101.847656 242.472656 102.054688 C 242.746094 102.148438 243.257812 102.136719 243.5625 102.039062 C 244.210938 101.824219 244.65625 101.3125 244.800781 100.621094 C 244.886719 100.195312 244.839844 99.878906 244.632812 99.453125 C 244.5 99.164062 244.164062 98.808594 243.898438 98.667969 C 243.5625 98.488281 243.054688 98.394531 242.714844 98.453125 Z M 242.714844 98.453125 " fill-opacity="1" fill-rule="nonzero"/></g><path stroke-linecap="butt" transform="matrix(0.512762, 0, 0, 0.512762, 126.795524, 73.640239)" fill="none" stroke-linejoin="miter" d="M 2.150925 49.000072 L 16.015783 49.000072 L 16.015783 38.060547 L 21.820739 38.060547 C 31.05382 38.060547 36.546437 32.948833 36.546437 24.317579 C 36.546437 15.724415 30.901459 10.605083 21.287476 10.605083 L 2.150925 10.605083 Z M 16.069109 28.469418 L 16.015783 20.196212 L 18.689719 20.196212 C 21.287476 20.196212 22.681579 21.696969 22.681579 24.317579 C 22.681579 26.968662 21.241767 28.469418 18.689719 28.469418 Z M 45.992823 49.480009 C 49.938975 49.480009 53.069995 47.400281 54.624077 44.19308 L 54.677404 44.19308 L 54.829765 44.726344 C 55.530626 47.499316 58.791153 49.586662 62.836339 49.586662 C 65.662637 49.586662 68.869837 48.946746 71.109545 47.346954 L 69.608788 41.267748 C 69.075525 41.595324 68.336574 41.854338 67.749983 41.854338 C 66.889143 41.854338 66.409206 41.214421 66.409206 40.041241 L 66.409206 32.461278 C 66.409206 24.949877 61.289874 20.302865 52.590057 20.302865 C 44.271143 20.302865 39.106103 24.46994 38.946123 31.24239 L 50.784578 31.981341 C 51.005502 29.688307 51.6378 28.309439 52.864307 28.309439 C 53.709911 28.309439 54.365064 29.002682 54.365064 30.450112 C 54.365064 31.82898 53.55755 32.362243 52.491022 32.461278 L 49.177169 32.788854 C 42.359011 33.428771 37.719617 36.354103 37.719617 41.854338 C 37.719617 46.608003 41.03347 49.480009 45.992823 49.480009 Z M 51.851106 41.747685 C 50.784578 41.747685 50.038009 41.054442 50.038009 40.041241 C 50.038009 38.868061 50.93694 38.014839 52.864307 37.85486 L 54.311737 37.748207 L 54.311737 38.548103 C 54.311737 40.521179 53.24521 41.747685 51.851106 41.747685 Z M 83.694569 61.158485 C 94.131302 61.158485 100.797099 55.460181 100.797099 46.333753 L 100.797099 21.270358 L 88.532033 21.270358 L 88.532033 36.460756 C 88.532033 38.281471 87.793082 39.401325 86.520867 39.401325 C 85.446722 39.401325 84.814423 38.388124 84.814423 36.68168 L 84.814423 21.270358 L 72.549357 21.270358 L 72.549357 39.401325 C 72.549357 45.434823 75.581342 49.000072 80.746383 49.000072 C 84.227833 49.000072 87.153166 46.707038 88.707248 42.867539 L 88.760575 42.867539 L 88.760575 45.259608 C 88.760575 48.946746 86.193291 51.293106 82.08716 51.293106 C 79.367515 51.293106 76.06128 50.447502 73.493996 49.000072 L 70.515337 58.111264 C 74.080586 60.091958 79.146591 61.158485 83.694569 61.158485 Z M 83.694569 61.158485 " stroke="#000000" stroke-width="8.599995" stroke-opacity="1" stroke-miterlimit="4"/><path stroke-linecap="butt" transform="matrix(0.512762, 0, 0, 0.512762, 126.795524, 73.640239)" fill="none" stroke-linejoin="miter" d="M 103.4558 49.000072 L 115.720866 49.000072 L 115.720866 9.005292 L 103.4558 9.005292 Z M 125.700516 49.480009 C 129.646667 49.480009 132.785305 47.400281 134.33177 44.19308 L 134.385097 44.19308 L 134.545076 44.726344 C 135.245937 47.499316 138.498846 49.586662 142.55165 49.586662 C 145.377948 49.586662 148.57753 48.946746 150.817238 47.346954 L 149.324099 41.267748 C 148.783218 41.595324 148.044266 41.854338 147.457676 41.854338 C 146.596836 41.854338 146.116899 41.214421 146.116899 40.041241 L 146.116899 32.461278 C 146.116899 24.949877 140.997567 20.302865 132.305368 20.302865 C 123.986454 20.302865 118.813796 24.46994 118.661434 31.24239 L 130.492271 31.981341 C 130.713195 29.688307 131.353111 28.309439 132.579618 28.309439 C 133.425222 28.309439 134.072756 29.002682 134.072756 30.450112 C 134.072756 31.82898 133.265243 32.362243 132.198715 32.461278 L 128.89248 32.788854 C 122.066704 33.428771 117.434928 36.354103 117.434928 41.854338 C 117.434928 46.608003 120.741163 49.480009 125.700516 49.480009 Z M 131.558799 41.747685 C 130.492271 41.747685 129.75332 41.054442 129.75332 40.041241 C 129.75332 38.868061 130.652251 38.014839 132.579618 37.85486 L 134.01943 37.748207 L 134.01943 38.548103 C 134.01943 40.521179 132.952903 41.747685 131.558799 41.747685 Z M 161.109228 49.533336 C 164.522116 49.533336 167.455067 47.674531 168.780608 43.88074 L 168.833934 43.88074 L 170.433725 49.000072 L 180.839986 49.000072 L 180.839986 9.005292 L 168.57492 9.005292 L 168.57492 26.22971 L 168.521594 26.22971 C 167.12749 22.595899 164.407845 20.737094 161.109228 20.737094 C 155.243327 20.737094 151.502863 26.123058 151.502863 35.135215 C 151.502863 44.139754 155.243327 49.533336 161.109228 49.533336 Z M 166.434247 39.401325 C 164.78113 39.401325 163.767929 37.85486 163.767929 35.135215 C 163.767929 32.41557 164.78113 30.861487 166.434247 30.861487 C 168.087365 30.861487 169.108184 32.41557 169.108184 35.135215 C 169.108184 37.85486 168.087365 39.401325 166.434247 39.401325 Z M 190.812018 49.480009 C 194.75817 49.480009 197.896808 47.400281 199.450891 44.19308 L 199.496599 44.19308 L 199.656578 44.726344 C 200.357439 47.499316 203.617966 49.586662 207.663153 49.586662 C 210.48945 49.586662 213.689033 48.946746 215.92874 47.346954 L 214.435602 41.267748 C 213.902338 41.595324 213.155769 41.854338 212.569179 41.854338 C 211.715957 41.854338 211.228402 41.214421 211.228402 40.041241 L 211.228402 32.461278 C 211.228402 24.949877 206.116688 20.302865 197.416871 20.302865 C 189.097956 20.302865 183.925298 24.46994 183.772937 31.24239 L 195.603774 31.981341 C 195.824697 29.688307 196.464614 28.309439 197.691121 28.309439 C 198.536725 28.309439 199.184259 29.002682 199.184259 30.450112 C 199.184259 31.82898 198.376745 32.362243 197.310218 32.461278 L 194.003983 32.788854 C 187.185825 33.428771 182.54643 36.354103 182.54643 41.854338 C 182.54643 46.608003 185.852666 49.480009 190.812018 49.480009 Z M 196.677919 41.747685 C 195.603774 41.747685 194.864823 41.054442 194.864823 40.041241 C 194.864823 38.868061 195.763753 38.014839 197.691121 37.85486 L 199.138551 37.748207 L 199.138551 38.548103 C 199.138551 40.521179 198.064405 41.747685 196.677919 41.747685 Z M 196.677919 41.747685 " stroke="#000000" stroke-width="8.599995" stroke-opacity="1" stroke-miterlimit="4"/><g fill="#00bf63" fill-opacity="1"><g transform="translate(126.803536, 98.765588)"><g><path d="M 1.09375 0 L 8.203125 0 L 8.203125 -5.605469 L 11.183594 -5.605469 C 15.914062 -5.605469 18.730469 -8.230469 18.730469 -12.660156 C 18.730469 -17.0625 15.832031 -19.6875 10.910156 -19.6875 L 1.09375 -19.6875 Z M 8.230469 -10.527344 L 8.203125 -14.765625 L 9.570312 -14.765625 C 10.910156 -14.765625 11.621094 -14 11.621094 -12.660156 C 11.621094 -11.292969 10.882812 -10.527344 9.570312 -10.527344 Z M 8.230469 -10.527344 "/></g></g></g><g fill="#00bf63" fill-opacity="1"><g transform="translate(145.944755, 98.765588)"><g><path d="M 4.429688 0.246094 C 6.453125 0.246094 8.066406 -0.820312 8.859375 -2.460938 L 8.886719 -2.460938 L 8.96875 -2.1875 C 9.324219 -0.765625 10.992188 0.300781 13.070312 0.300781 C 14.519531 0.300781 16.160156 -0.0273438 17.308594 -0.847656 L 16.542969 -3.964844 C 16.269531 -3.800781 15.886719 -3.664062 15.585938 -3.664062 C 15.148438 -3.664062 14.902344 -3.992188 14.902344 -4.59375 L 14.902344 -8.476562 C 14.902344 -12.332031 12.277344 -14.710938 7.820312 -14.710938 C 3.554688 -14.710938 0.902344 -12.578125 0.820312 -9.105469 L 6.890625 -8.722656 C 7 -9.898438 7.328125 -10.609375 7.957031 -10.609375 C 8.394531 -10.609375 8.722656 -10.253906 8.722656 -9.515625 C 8.722656 -8.804688 8.3125 -8.53125 7.765625 -8.476562 L 6.070312 -8.3125 C 2.570312 -7.984375 0.191406 -6.480469 0.191406 -3.664062 C 0.191406 -1.230469 1.886719 0.246094 4.429688 0.246094 Z M 7.4375 -3.71875 C 6.890625 -3.71875 6.507812 -4.074219 6.507812 -4.59375 C 6.507812 -5.195312 6.972656 -5.632812 7.957031 -5.714844 L 8.695312 -5.769531 L 8.695312 -5.359375 C 8.695312 -4.347656 8.148438 -3.71875 7.4375 -3.71875 Z M 7.4375 -3.71875 "/></g></g></g><g fill="#00bf63" fill-opacity="1"><g transform="translate(163.253891, 98.765588)"><g><path d="M 6.453125 6.234375 C 11.8125 6.234375 15.230469 3.308594 15.230469 -1.367188 L 15.230469 -14.21875 L 8.941406 -14.21875 L 8.941406 -6.425781 C 8.941406 -5.496094 8.558594 -4.921875 7.902344 -4.921875 C 7.355469 -4.921875 7.027344 -5.441406 7.027344 -6.316406 L 7.027344 -14.21875 L 0.738281 -14.21875 L 0.738281 -4.921875 C 0.738281 -1.832031 2.296875 0 4.949219 0 C 6.726562 0 8.230469 -1.175781 9.023438 -3.144531 L 9.050781 -3.144531 L 9.050781 -1.914062 C 9.050781 -0.0273438 7.738281 1.175781 5.632812 1.175781 C 4.238281 1.175781 2.542969 0.738281 1.230469 0 L -0.300781 4.675781 C 1.53125 5.6875 4.128906 6.234375 6.453125 6.234375 Z M 6.453125 6.234375 "/></g></g></g><g fill="#ffffff" fill-opacity="1"><g transform="translate(179.161366, 98.765588)"><g><path d="M 0.683594 0 L 6.972656 0 L 6.972656 -20.507812 L 0.683594 -20.507812 Z M 0.683594 0 "/></g></g></g><g fill="#ffffff" fill-opacity="1"><g transform="translate(186.817857, 98.765588)"><g><path d="M 4.429688 0.246094 C 6.453125 0.246094 8.066406 -0.820312 8.859375 -2.460938 L 8.886719 -2.460938 L 8.96875 -2.1875 C 9.324219 -0.765625 10.992188 0.300781 13.070312 0.300781 C 14.519531 0.300781 16.160156 -0.0273438 17.308594 -0.847656 L 16.542969 -3.964844 C 16.269531 -3.800781 15.886719 -3.664062 15.585938 -3.664062 C 15.148438 -3.664062 14.902344 -3.992188 14.902344 -4.59375 L 14.902344 -8.476562 C 14.902344 -12.332031 12.277344 -14.710938 7.820312 -14.710938 C 3.554688 -14.710938 0.902344 -12.578125 0.820312 -9.105469 L 6.890625 -8.722656 C 7 -9.898438 7.328125 -10.609375 7.957031 -10.609375 C 8.394531 -10.609375 8.722656 -10.253906 8.722656 -9.515625 C 8.722656 -8.804688 8.3125 -8.53125 7.765625 -8.476562 L 6.070312 -8.3125 C 2.570312 -7.984375 0.191406 -6.480469 0.191406 -3.664062 C 0.191406 -1.230469 1.886719 0.246094 4.429688 0.246094 Z M 7.4375 -3.71875 C 6.890625 -3.71875 6.507812 -4.074219 6.507812 -4.59375 C 6.507812 -5.195312 6.972656 -5.632812 7.957031 -5.714844 L 8.695312 -5.769531 L 8.695312 -5.359375 C 8.695312 -4.347656 8.148438 -3.71875 7.4375 -3.71875 Z M 7.4375 -3.71875 "/></g></g></g><g fill="#ffffff" fill-opacity="1"><g transform="translate(204.126993, 98.765588)"><g><path d="M 5.277344 0.273438 C 7.027344 0.273438 8.53125 -0.683594 9.214844 -2.625 L 9.242188 -2.625 L 10.0625 0 L 15.394531 0 L 15.394531 -20.507812 L 9.105469 -20.507812 L 9.105469 -11.675781 L 9.078125 -11.675781 C 8.367188 -13.535156 6.972656 -14.492188 5.277344 -14.492188 C 2.269531 -14.492188 0.355469 -11.730469 0.355469 -7.109375 C 0.355469 -2.488281 2.269531 0.273438 5.277344 0.273438 Z M 8.011719 -4.921875 C 7.164062 -4.921875 6.644531 -5.714844 6.644531 -7.109375 C 6.644531 -8.503906 7.164062 -9.296875 8.011719 -9.296875 C 8.859375 -9.296875 9.378906 -8.503906 9.378906 -7.109375 C 9.378906 -5.714844 8.859375 -4.921875 8.011719 -4.921875 Z M 8.011719 -4.921875 "/></g></g></g><g fill="#ffffff" fill-opacity="1"><g transform="translate(220.205621, 98.765588)"><g><path d="M 4.429688 0.246094 C 6.453125 0.246094 8.066406 -0.820312 8.859375 -2.460938 L 8.886719 -2.460938 L 8.96875 -2.1875 C 9.324219 -0.765625 10.992188 0.300781 13.070312 0.300781 C 14.519531 0.300781 16.160156 -0.0273438 17.308594 -0.847656 L 16.542969 -3.964844 C 16.269531 -3.800781 15.886719 -3.664062 15.585938 -3.664062 C 15.148438 -3.664062 14.902344 -3.992188 14.902344 -4.59375 L 14.902344 -8.476562 C 14.902344 -12.332031 12.277344 -14.710938 7.820312 -14.710938 C 3.554688 -14.710938 0.902344 -12.578125 0.820312 -9.105469 L 6.890625 -8.722656 C 7 -9.898438 7.328125 -10.609375 7.957031 -10.609375 C 8.394531 -10.609375 8.722656 -10.253906 8.722656 -9.515625 C 8.722656 -8.804688 8.3125 -8.53125 7.765625 -8.476562 L 6.070312 -8.3125 C 2.570312 -7.984375 0.191406 -6.480469 0.191406 -3.664062 C 0.191406 -1.230469 1.886719 0.246094 4.429688 0.246094 Z M 7.4375 -3.71875 C 6.890625 -3.71875 6.507812 -4.074219 6.507812 -4.59375 C 6.507812 -5.195312 6.972656 -5.632812 7.957031 -5.714844 L 8.695312 -5.769531 L 8.695312 -5.359375 C 8.695312 -4.347656 8.148438 -3.71875 7.4375 -3.71875 Z M 7.4375 -3.71875 "/></g></g></g><g fill="#033e6a" fill-opacity="1"><g transform="translate(28.940269, 157.766951)"><g><path d="M 14.78125 -26.53125 C 17.1875 -26.53125 19.269531 -26.128906 21.03125 -25.328125 C 22.800781 -24.535156 24.164062 -23.398438 25.125 -21.921875 C 26.09375 -20.453125 26.578125 -18.71875 26.578125 -16.71875 C 26.578125 -14.71875 26.09375 -12.984375 25.125 -11.515625 C 24.164062 -10.054688 22.800781 -8.925781 21.03125 -8.125 C 19.269531 -7.332031 17.1875 -6.9375 14.78125 -6.9375 L 10.15625 -6.9375 L 10.15625 0 L 2.65625 0 L 2.65625 -26.53125 Z M 14.328125 -12.84375 C 15.867188 -12.84375 17.03125 -13.175781 17.8125 -13.84375 C 18.59375 -14.519531 18.984375 -15.476562 18.984375 -16.71875 C 18.984375 -17.957031 18.59375 -18.914062 17.8125 -19.59375 C 17.03125 -20.28125 15.867188 -20.625 14.328125 -20.625 L 10.15625 -20.625 L 10.15625 -12.84375 Z M 14.328125 -12.84375 "/></g></g></g><g fill="#033e6a" fill-opacity="1"><g transform="translate(54.854001, 157.766951)"><g><path d="M 23.953125 -5.796875 L 23.953125 0 L 2.65625 0 L 2.65625 -26.53125 L 23.46875 -26.53125 L 23.46875 -20.734375 L 10.078125 -20.734375 L 10.078125 -16.265625 L 21.875 -16.265625 L 21.875 -10.65625 L 10.078125 -10.65625 L 10.078125 -5.796875 Z M 23.953125 -5.796875 "/></g></g></g><g fill="#033e6a" fill-opacity="1"><g transform="translate(78.305084, 157.766951)"><g><path d="M 2.65625 -26.53125 L 10.15625 -26.53125 L 10.15625 -5.953125 L 22.8125 -5.953125 L 22.8125 0 L 2.65625 0 Z M 2.65625 -26.53125 "/></g></g></g><g fill="#033e6a" fill-opacity="1"><g transform="translate(99.407172, 157.766951)"><g><path d="M 20.4375 -5.15625 L 9.21875 -5.15625 L 7.125 0 L -0.53125 0 L 11.1875 -26.53125 L 18.578125 -26.53125 L 30.328125 0 L 22.515625 0 Z M 18.234375 -10.6875 L 14.828125 -19.1875 L 11.40625 -10.6875 Z M 18.234375 -10.6875 "/></g></g></g><g fill="#033e6a" fill-opacity="1"><g transform="translate(127.177355, 157.766951)"><g><path d="M 2.65625 -26.53125 L 15.203125 -26.53125 C 18.109375 -26.53125 20.6875 -25.988281 22.9375 -24.90625 C 25.1875 -23.820312 26.925781 -22.28125 28.15625 -20.28125 C 29.394531 -18.28125 30.015625 -15.941406 30.015625 -13.265625 C 30.015625 -10.585938 29.394531 -8.25 28.15625 -6.25 C 26.925781 -4.257812 25.1875 -2.71875 22.9375 -1.625 C 20.6875 -0.539062 18.109375 0 15.203125 0 L 2.65625 0 Z M 14.890625 -5.984375 C 17.171875 -5.984375 19 -6.628906 20.375 -7.921875 C 21.75 -9.210938 22.4375 -10.992188 22.4375 -13.265625 C 22.4375 -15.535156 21.75 -17.316406 20.375 -18.609375 C 19 -19.898438 17.171875 -20.546875 14.890625 -20.546875 L 10.15625 -20.546875 L 10.15625 -5.984375 Z M 14.890625 -5.984375 "/></g></g></g><g fill="#033e6a" fill-opacity="1"><g transform="translate(156.463018, 157.766951)"><g><path d="M 23.953125 -5.796875 L 23.953125 0 L 2.65625 0 L 2.65625 -26.53125 L 23.46875 -26.53125 L 23.46875 -20.734375 L 10.078125 -20.734375 L 10.078125 -16.265625 L 21.875 -16.265625 L 21.875 -10.65625 L 10.078125 -10.65625 L 10.078125 -5.796875 Z M 23.953125 -5.796875 "/></g></g></g><g fill="#033e6a" fill-opacity="1"><g transform="translate(179.914106, 157.766951)"><g><path d="M 2.65625 -26.53125 L 10.15625 -26.53125 L 10.15625 0 L 2.65625 0 Z M 2.65625 -26.53125 "/></g></g></g><g fill="#033e6a" fill-opacity="1"><g transform="translate(190.74882, 157.766951)"><g><path d="M 14.25 -7.046875 L 10.15625 -7.046875 L 10.15625 0 L 2.65625 0 L 2.65625 -26.53125 L 14.78125 -26.53125 C 17.1875 -26.53125 19.269531 -26.128906 21.03125 -25.328125 C 22.800781 -24.535156 24.164062 -23.398438 25.125 -21.921875 C 26.09375 -20.453125 26.578125 -18.71875 26.578125 -16.71875 C 26.578125 -14.789062 26.125 -13.113281 25.21875 -11.6875 C 24.320312 -10.257812 23.039062 -9.144531 21.375 -8.34375 L 27.109375 0 L 19.0625 0 Z M 18.984375 -16.71875 C 18.984375 -17.957031 18.59375 -18.914062 17.8125 -19.59375 C 17.03125 -20.28125 15.867188 -20.625 14.328125 -20.625 L 10.15625 -20.625 L 10.15625 -12.84375 L 14.328125 -12.84375 C 15.867188 -12.84375 17.03125 -13.175781 17.8125 -13.84375 C 18.59375 -14.519531 18.984375 -15.476562 18.984375 -16.71875 Z M 18.984375 -16.71875 "/></g></g></g><g fill="#033e6a" fill-opacity="1"><g transform="translate(216.776202, 157.766951)"><g><path d="M 16.03125 0.53125 C 13.226562 0.53125 10.707031 -0.0625 8.46875 -1.25 C 6.238281 -2.4375 4.484375 -4.078125 3.203125 -6.171875 C 1.921875 -8.273438 1.28125 -10.640625 1.28125 -13.265625 C 1.28125 -15.890625 1.921875 -18.25 3.203125 -20.34375 C 4.484375 -22.445312 6.238281 -24.09375 8.46875 -25.28125 C 10.707031 -26.46875 13.226562 -27.0625 16.03125 -27.0625 C 18.832031 -27.0625 21.351562 -26.46875 23.59375 -25.28125 C 25.832031 -24.09375 27.585938 -22.445312 28.859375 -20.34375 C 30.140625 -18.25 30.78125 -15.890625 30.78125 -13.265625 C 30.78125 -10.640625 30.140625 -8.273438 28.859375 -6.171875 C 27.585938 -4.078125 25.832031 -2.4375 23.59375 -1.25 C 21.351562 -0.0625 18.832031 0.53125 16.03125 0.53125 Z M 16.03125 -5.6875 C 17.375 -5.6875 18.585938 -6 19.671875 -6.625 C 20.753906 -7.257812 21.613281 -8.148438 22.25 -9.296875 C 22.882812 -10.453125 23.203125 -11.773438 23.203125 -13.265625 C 23.203125 -14.753906 22.882812 -16.070312 22.25 -17.21875 C 21.613281 -18.375 20.753906 -19.265625 19.671875 -19.890625 C 18.585938 -20.523438 17.375 -20.84375 16.03125 -20.84375 C 14.695312 -20.84375 13.484375 -20.523438 12.390625 -19.890625 C 11.304688 -19.265625 10.445312 -18.375 9.8125 -17.21875 C 9.1875 -16.070312 8.875 -14.753906 8.875 -13.265625 C 8.875 -11.773438 9.1875 -10.453125 9.8125 -9.296875 C 10.445312 -8.148438 11.304688 -7.257812 12.390625 -6.625 C 13.484375 -6 14.695312 -5.6875 16.03125 -5.6875 Z M 16.03125 -5.6875 "/></g></g></g><g fill="#033e6a" fill-opacity="1"><g transform="translate(246.819597, 157.766951)"><g><path d="M 11.984375 0.53125 C 9.828125 0.53125 7.738281 0.265625 5.71875 -0.265625 C 3.695312 -0.796875 2.054688 -1.503906 0.796875 -2.390625 L 3.265625 -7.921875 C 4.453125 -7.140625 5.828125 -6.507812 7.390625 -6.03125 C 8.953125 -5.550781 10.492188 -5.3125 12.015625 -5.3125 C 14.898438 -5.3125 16.34375 -6.03125 16.34375 -7.46875 C 16.34375 -8.226562 15.929688 -8.789062 15.109375 -9.15625 C 14.285156 -9.519531 12.960938 -9.90625 11.140625 -10.3125 C 9.148438 -10.738281 7.484375 -11.195312 6.140625 -11.6875 C 4.796875 -12.1875 3.644531 -12.976562 2.6875 -14.0625 C 1.726562 -15.144531 1.25 -16.609375 1.25 -18.453125 C 1.25 -20.078125 1.691406 -21.539062 2.578125 -22.84375 C 3.460938 -24.144531 4.78125 -25.171875 6.53125 -25.921875 C 8.289062 -26.679688 10.445312 -27.0625 13 -27.0625 C 14.75 -27.0625 16.46875 -26.863281 18.15625 -26.46875 C 19.851562 -26.082031 21.34375 -25.507812 22.625 -24.75 L 20.3125 -19.1875 C 17.789062 -20.550781 15.34375 -21.234375 12.96875 -21.234375 C 11.476562 -21.234375 10.390625 -21.007812 9.703125 -20.5625 C 9.023438 -20.125 8.6875 -19.550781 8.6875 -18.84375 C 8.6875 -18.132812 9.085938 -17.601562 9.890625 -17.25 C 10.703125 -16.894531 12.003906 -16.523438 13.796875 -16.140625 C 15.816406 -15.710938 17.488281 -15.253906 18.8125 -14.765625 C 20.144531 -14.273438 21.296875 -13.488281 22.265625 -12.40625 C 23.242188 -11.332031 23.734375 -9.875 23.734375 -8.03125 C 23.734375 -6.4375 23.289062 -4.992188 22.40625 -3.703125 C 21.519531 -2.421875 20.191406 -1.394531 18.421875 -0.625 C 16.648438 0.144531 14.503906 0.53125 11.984375 0.53125 Z M 11.984375 0.53125 "/></g></g></g><g fill="#033e6a" fill-opacity="1"><g transform="translate(269.323492, 157.766951)"><g/></g></g><g fill="#033e6a" fill-opacity="1"><g transform="translate(278.339636, 157.766951)"><g><path d="M 10.15625 -20.734375 L 10.15625 -14.890625 L 21.875 -14.890625 L 21.875 -9.09375 L 10.15625 -9.09375 L 10.15625 0 L 2.65625 0 L 2.65625 -26.53125 L 23.46875 -26.53125 L 23.46875 -20.734375 Z M 10.15625 -20.734375 "/></g></g></g><g fill="#033e6a" fill-opacity="1"><g transform="translate(300.654094, 157.766951)"><g><path d="M 5.34375 0.34375 C 4.132812 0.34375 3.113281 -0.0546875 2.28125 -0.859375 C 1.445312 -1.671875 1.03125 -2.695312 1.03125 -3.9375 C 1.03125 -5.207031 1.4375 -6.234375 2.25 -7.015625 C 3.070312 -7.796875 4.101562 -8.1875 5.34375 -8.1875 C 6.601562 -8.1875 7.640625 -7.796875 8.453125 -7.015625 C 9.265625 -6.234375 9.671875 -5.207031 9.671875 -3.9375 C 9.671875 -2.695312 9.257812 -1.671875 8.4375 -0.859375 C 7.613281 -0.0546875 6.582031 0.34375 5.34375 0.34375 Z M 5.34375 0.34375 "/></g></g></g><g fill="#033e6a" fill-opacity="1"><g transform="translate(309.367166, 157.766951)"><g><path d="M 15.875 0.53125 C 13.101562 0.53125 10.609375 -0.0546875 8.390625 -1.234375 C 6.179688 -2.410156 4.441406 -4.046875 3.171875 -6.140625 C 1.910156 -8.234375 1.28125 -10.609375 1.28125 -13.265625 C 1.28125 -15.921875 1.910156 -18.296875 3.171875 -20.390625 C 4.441406 -22.492188 6.179688 -24.128906 8.390625 -25.296875 C 10.609375 -26.472656 13.101562 -27.0625 15.875 -27.0625 C 18.300781 -27.0625 20.488281 -26.628906 22.4375 -25.765625 C 24.382812 -24.910156 26.003906 -23.675781 27.296875 -22.0625 L 22.515625 -17.734375 C 20.796875 -19.804688 18.710938 -20.84375 16.265625 -20.84375 C 14.816406 -20.84375 13.53125 -20.523438 12.40625 -19.890625 C 11.289062 -19.265625 10.421875 -18.375 9.796875 -17.21875 C 9.179688 -16.070312 8.875 -14.753906 8.875 -13.265625 C 8.875 -11.773438 9.179688 -10.453125 9.796875 -9.296875 C 10.421875 -8.148438 11.289062 -7.257812 12.40625 -6.625 C 13.53125 -6 14.816406 -5.6875 16.265625 -5.6875 C 18.710938 -5.6875 20.796875 -6.722656 22.515625 -8.796875 L 27.296875 -4.46875 C 26.003906 -2.851562 24.382812 -1.613281 22.4375 -0.75 C 20.488281 0.101562 18.300781 0.53125 15.875 0.53125 Z M 15.875 0.53125 "/></g></g></g><g fill="#033e6a" fill-opacity="1"><g transform="translate(335.318795, 157.766951)"><g><path d="M 5.34375 0.34375 C 4.132812 0.34375 3.113281 -0.0546875 2.28125 -0.859375 C 1.445312 -1.671875 1.03125 -2.695312 1.03125 -3.9375 C 1.03125 -5.207031 1.4375 -6.234375 2.25 -7.015625 C 3.070312 -7.796875 4.101562 -8.1875 5.34375 -8.1875 C 6.601562 -8.1875 7.640625 -7.796875 8.453125 -7.015625 C 9.265625 -6.234375 9.671875 -5.207031 9.671875 -3.9375 C 9.671875 -2.695312 9.257812 -1.671875 8.4375 -0.859375 C 7.613281 -0.0546875 6.582031 0.34375 5.34375 0.34375 Z M 5.34375 0.34375 "/></g></g></g></svg>