<svg xmlns="http://www.w3.org/2000/svg" xmlns:xlink="http://www.w3.org/1999/xlink" width="500" zoomAndPan="magnify" viewBox="0 0 375 112.499997" height="150" preserveAspectRatio="xMidYMid meet" version="1.0"><defs><g/><clipPath id="ed71a9efdd"><path d="M 0.828125 0 L 374.167969 0 L 374.167969 112.003906 L 0.828125 112.003906 Z M 0.828125 0 " clip-rule="nonzero"/></clipPath><clipPath id="a936811d26"><path d="M 330 11.199219 L 369.761719 11.199219 L 369.761719 82 L 330 82 Z M 330 11.199219 " clip-rule="nonzero"/></clipPath><clipPath id="3d884a5514"><path d="M 327.457031 72 L 338 72 L 338 82.351562 L 327.457031 82.351562 Z M 327.457031 72 " clip-rule="nonzero"/></clipPath><clipPath id="0e6672619e"><path d="M 0.828125 0 L 224 0 L 224 112.003906 L 0.828125 112.003906 Z M 0.828125 0 " clip-rule="nonzero"/></clipPath><clipPath id="9a5aaf5e5d"><path d="M 89 0 L 374.167969 0 L 374.167969 112.003906 L 89 112.003906 Z M 89 0 " clip-rule="nonzero"/></clipPath></defs><g clip-path="url(#ed71a9efdd)"><path fill="#ffffff" d="M 0.828125 0 L 374.171875 0 L 374.171875 119.46875 L 0.828125 119.46875 Z M 0.828125 0 " fill-opacity="1" fill-rule="nonzero"/><path fill="#ffffff" d="M 0.828125 0 L 374.171875 0 L 374.171875 112.003906 L 0.828125 112.003906 Z M 0.828125 0 " fill-opacity="1" fill-rule="nonzero"/><path fill="#ffffff" d="M 0.828125 0 L 374.171875 0 L 374.171875 112.003906 L 0.828125 112.003906 Z M 0.828125 0 " fill-opacity="1" fill-rule="nonzero"/></g><g clip-path="url(#a936811d26)"><path fill="#000000" d="M 336.308594 11.398438 C 335.480469 11.699219 335.011719 11.949219 334.816406 12.179688 C 334.523438 12.539062 333.765625 14.222656 333.667969 14.730469 C 333.617188 15.03125 333.605469 15.628906 333.640625 16.253906 C 333.6875 17.089844 333.742188 17.320312 333.890625 17.535156 C 334.015625 17.703125 334.105469 18.007812 334.140625 18.371094 C 334.183594 18.765625 334.273438 19.058594 334.460938 19.351562 C 334.851562 19.984375 334.894531 20.066406 335.222656 20.867188 L 335.535156 21.605469 L 334.964844 21.882812 C 334.65625 22.035156 334.167969 22.347656 333.890625 22.570312 C 333.605469 22.800781 333.191406 23.09375 332.96875 23.21875 C 332.40625 23.546875 332.035156 24.003906 331.652344 24.796875 C 331.378906 25.382812 331.339844 25.554688 331.339844 26.097656 C 331.351562 26.621094 331.414062 26.855469 331.722656 27.585938 L 332.089844 28.449219 L 332.078125 30.167969 C 332.070312 31.523438 332.035156 32.046875 331.902344 32.636719 C 331.742188 33.3125 331.722656 33.765625 331.722656 37.667969 C 331.722656 43.386719 331.75 42.925781 331.304688 44.136719 C 331.09375 44.699219 330.78125 45.429688 330.613281 45.757812 L 330.300781 46.363281 L 330.542969 46.675781 C 330.730469 46.925781 330.789062 47.140625 330.863281 47.761719 C 330.90625 48.191406 330.988281 48.609375 331.03125 48.6875 C 331.074219 48.777344 331.324219 48.964844 331.589844 49.117188 C 331.945312 49.332031 332.175781 49.394531 332.523438 49.394531 C 332.894531 49.394531 332.976562 49.367188 332.976562 49.234375 C 332.976562 49 332.796875 48.859375 332.523438 48.859375 C 332.382812 48.859375 332.160156 48.761719 332.027344 48.636719 L 331.777344 48.421875 L 332.308594 48.40625 C 332.601562 48.394531 332.886719 48.40625 332.933594 48.414062 C 333.347656 48.539062 333.582031 48.511719 333.632812 48.34375 C 333.667969 48.242188 333.800781 48.144531 333.953125 48.109375 C 334.316406 48.039062 334.316406 47.726562 333.960938 47.585938 C 333.785156 47.523438 333.6875 47.40625 333.652344 47.226562 C 333.5625 46.78125 333.589844 46.730469 333.953125 46.621094 C 334.246094 46.535156 334.308594 46.472656 334.292969 46.328125 C 334.273438 46.230469 334.175781 46.097656 334.058594 46.042969 C 333.882812 45.953125 333.875 45.925781 333.996094 45.828125 C 334.183594 45.679688 334.167969 45.5 333.953125 45.429688 C 333.8125 45.382812 333.777344 45.296875 333.777344 44.957031 C 333.777344 44.726562 333.714844 44.324219 333.652344 44.066406 C 333.554688 43.699219 333.542969 43.316406 333.597656 42.238281 C 333.679688 40.894531 333.847656 40.003906 334.210938 39.015625 C 334.449219 38.382812 335.074219 35.546875 335.234375 34.382812 C 335.367188 33.4375 335.507812 32.859375 335.640625 32.707031 C 335.738281 32.589844 336.253906 33.742188 336.449219 34.507812 C 336.546875 34.878906 336.664062 35.566406 336.707031 36.039062 C 336.75 36.503906 336.839844 37.011719 336.894531 37.152344 C 337.019531 37.457031 337.144531 39.289062 337.1875 41.660156 C 337.203125 42.65625 337.265625 43.449219 337.328125 43.65625 C 337.4375 43.957031 337.425781 44.003906 337.285156 44.09375 C 336.886719 44.316406 336.777344 44.503906 336.832031 44.839844 C 336.875 45.125 336.847656 45.179688 336.617188 45.3125 C 336.296875 45.5 336.289062 45.597656 336.574219 46.132812 L 336.796875 46.550781 L 336.433594 47.042969 C 336.023438 47.574219 335.890625 48.171875 336.078125 48.539062 C 336.164062 48.699219 336.148438 48.8125 335.988281 49.222656 C 335.882812 49.480469 335.6875 50.0625 335.550781 50.507812 C 335.410156 50.941406 335.195312 51.566406 335.0625 51.878906 C 334.804688 52.492188 334.804688 52.789062 335.0625 53.554688 C 335.136719 53.765625 335.234375 54.542969 335.285156 55.289062 C 335.464844 57.792969 335.472656 57.867188 335.828125 58.445312 C 336.003906 58.730469 336.457031 59.648438 336.832031 60.46875 C 337.203125 61.296875 337.648438 62.1875 337.816406 62.445312 C 338.246094 63.085938 340.828125 65.632812 341.804688 66.382812 C 342.535156 66.933594 342.632812 67.050781 342.996094 67.746094 C 343.21875 68.164062 343.484375 68.636719 343.601562 68.804688 C 343.789062 69.082031 343.796875 69.117188 343.664062 69.324219 C 343.546875 69.5 343.539062 69.589844 343.636719 69.9375 C 343.742188 70.3125 343.734375 70.347656 343.539062 70.570312 C 343.378906 70.746094 343.359375 70.792969 343.484375 70.746094 C 343.582031 70.710938 343.636719 70.738281 343.636719 70.808594 C 343.636719 70.871094 343.734375 71.03125 343.859375 71.167969 C 344 71.316406 344.082031 71.515625 344.082031 71.691406 C 344.082031 71.984375 344.144531 72.246094 344.382812 72.867188 L 344.515625 73.222656 L 344.523438 72.742188 C 344.523438 72.457031 344.558594 72.289062 344.605469 72.34375 C 344.703125 72.449219 344.996094 73.472656 345.191406 74.382812 C 345.5625 76.121094 346.347656 77.277344 347.152344 77.277344 C 347.4375 77.277344 348.070312 76.914062 348.425781 76.53125 C 348.550781 76.40625 348.71875 76.296875 348.816406 76.296875 C 348.957031 76.296875 348.984375 76.253906 348.929688 76.023438 C 348.867188 75.710938 349.003906 75.40625 349.1875 75.40625 C 349.355469 75.40625 349.367188 75.023438 349.207031 74.890625 C 349.144531 74.835938 349.089844 74.585938 349.074219 74.328125 C 349.0625 74.007812 348.949219 73.609375 348.65625 72.964844 C 348.183594 71.898438 348.015625 71.355469 347.9375 70.675781 C 347.882812 70.214844 347.890625 70.167969 348.070312 70.105469 C 348.292969 70.035156 348.328125 69.667969 348.121094 69.472656 C 347.925781 69.277344 347.953125 68.839844 348.167969 68.726562 C 348.390625 68.609375 348.390625 68.441406 348.175781 68.246094 C 348.085938 68.15625 347.980469 67.960938 347.953125 67.789062 C 347.839844 67.210938 347.179688 66.648438 346.105469 66.238281 C 345.511719 66.007812 345.484375 65.980469 345.199219 65.421875 C 345.039062 65.109375 344.480469 64.039062 343.957031 63.042969 C 343.28125 61.769531 342.945312 61.027344 342.820312 60.546875 C 342.613281 59.746094 342.136719 58.78125 341.363281 57.617188 C 341.050781 57.160156 340.839844 56.789062 340.875 56.789062 C 340.917969 56.789062 340.996094 56.851562 341.070312 56.929688 C 341.265625 57.160156 342.0625 57.527344 342.410156 57.535156 C 342.667969 57.535156 342.808594 57.484375 342.988281 57.304688 L 343.226562 57.0625 L 343.066406 56.449219 C 342.917969 55.871094 342.917969 55.816406 343.078125 55.238281 C 343.210938 54.71875 343.273438 54.613281 343.503906 54.515625 C 343.644531 54.453125 344.179688 54.015625 344.675781 53.542969 C 345.546875 52.734375 345.589844 52.699219 345.847656 52.789062 C 346.078125 52.867188 347.714844 54.472656 349.0625 55.933594 C 349.332031 56.21875 349.792969 56.652344 350.101562 56.902344 C 350.414062 57.144531 350.796875 57.535156 350.949219 57.765625 C 351.507812 58.578125 351.941406 59.09375 352.09375 59.105469 C 352.183594 59.105469 352.351562 59.308594 352.519531 59.628906 C 352.671875 59.914062 353.113281 60.546875 353.515625 61.027344 C 354.332031 62.042969 354.765625 62.667969 355.183594 63.425781 C 355.34375 63.71875 355.636719 64.15625 355.84375 64.40625 C 356.046875 64.644531 356.257812 64.957031 356.3125 65.089844 C 356.375 65.222656 356.632812 65.464844 356.890625 65.644531 C 357.691406 66.167969 358.160156 66.667969 358.363281 67.238281 C 358.675781 68.066406 358.96875 68.601562 359.929688 70.0625 C 360.433594 70.820312 361.164062 71.941406 361.5625 72.546875 C 362.335938 73.722656 362.511719 74.160156 362.648438 75.210938 C 362.734375 75.914062 363.011719 76.644531 363.277344 76.886719 C 363.367188 76.964844 363.472656 77.179688 363.5 77.359375 C 363.535156 77.535156 363.722656 77.980469 363.917969 78.347656 C 364.664062 79.738281 364.957031 80.359375 365.019531 80.699219 C 365.125 81.367188 365.160156 81.375 367.25 81.375 C 368.261719 81.375 369.238281 81.347656 369.425781 81.324219 C 369.734375 81.269531 369.753906 81.242188 369.753906 80.941406 C 369.753906 80.53125 369.503906 80.011719 368.660156 78.597656 C 368.277344 77.980469 367.976562 77.445312 367.976562 77.410156 C 367.976562 77.386719 368.058594 77.402344 368.144531 77.457031 C 368.242188 77.5 368.386719 77.519531 368.464844 77.492188 C 368.660156 77.410156 368.484375 77.222656 368.15625 77.152344 C 367.96875 77.117188 367.824219 77 367.703125 76.789062 C 367.59375 76.617188 367.480469 76.476562 367.433594 76.476562 C 367.25 76.476562 366.449219 75.621094 366.28125 75.238281 C 366.183594 75.023438 366.003906 74.703125 365.878906 74.535156 C 365.472656 74 365.046875 72.804688 365.046875 72.191406 C 365.046875 71.539062 364.609375 69.917969 363.980469 68.226562 C 363.339844 66.523438 363.054688 65.929688 362.414062 64.964844 C 362.105469 64.492188 361.777344 63.933594 361.679688 63.71875 C 361.582031 63.488281 361.324219 63.167969 361.019531 62.90625 C 360.746094 62.675781 360.496094 62.410156 360.46875 62.3125 C 360.445312 62.222656 360.335938 62.113281 360.25 62.089844 C 359.945312 61.992188 358.585938 59.503906 358.328125 58.585938 C 358.160156 57.972656 358.207031 57.765625 358.507812 57.765625 C 359.039062 57.765625 360.871094 57.046875 360.871094 56.832031 C 360.871094 56.582031 360.347656 55.441406 360.042969 55.03125 C 359.875 54.792969 359.492188 54.097656 359.199219 53.480469 C 358.914062 52.867188 358.4375 52.011719 358.144531 51.566406 C 357.851562 51.128906 357.503906 50.570312 357.371094 50.3125 C 357.058594 49.75 356.792969 49.472656 356.171875 49.144531 L 355.691406 48.875 L 355.683594 48.253906 C 355.671875 47.71875 355.636719 47.585938 355.460938 47.398438 C 355.140625 47.058594 354.730469 46.953125 354.367188 47.105469 L 354.066406 47.226562 L 353.949219 46.550781 C 353.886719 46.175781 353.824219 45.667969 353.816406 45.429688 C 353.753906 44.15625 352.9375 41.3125 352.234375 39.914062 C 352.136719 39.71875 351.90625 39.140625 351.71875 38.621094 C 351.535156 38.105469 351.304688 37.457031 351.203125 37.1875 C 350.8125 36.101562 350.484375 34.878906 350.441406 34.292969 C 350.40625 33.945312 350.28125 33.25 350.164062 32.734375 C 349.925781 31.746094 349.597656 30.035156 349.589844 29.765625 C 349.589844 29.625 349.605469 29.625 349.925781 29.785156 C 350.386719 30.023438 351.578125 30.390625 352.121094 30.460938 C 352.367188 30.496094 352.839844 30.621094 353.175781 30.738281 C 354.289062 31.121094 355.371094 30.980469 355.511719 30.425781 C 355.59375 30.097656 355.46875 28.929688 355.316406 28.636719 C 355.113281 28.234375 354.332031 27.21875 354.074219 27.015625 C 353.949219 26.917969 353.753906 26.648438 353.640625 26.417969 C 353.347656 25.855469 352.589844 25.144531 351.460938 24.402344 C 351.117188 24.171875 350.832031 23.921875 350.832031 23.851562 C 350.832031 23.683594 349.773438 22.578125 349.125 22.070312 C 348.84375 21.855469 348.609375 21.632812 348.609375 21.578125 C 348.609375 21.4375 347.820312 20.601562 347.519531 20.421875 C 347.386719 20.339844 347.019531 20.253906 346.71875 20.214844 C 346.417969 20.179688 345.972656 20.066406 345.722656 19.957031 C 345.34375 19.789062 345.148438 19.761719 344.390625 19.789062 C 343.902344 19.808594 343.386719 19.851562 343.238281 19.894531 C 343.050781 19.949219 342.890625 19.929688 342.710938 19.84375 C 342.578125 19.769531 342.394531 19.726562 342.304688 19.753906 C 341.824219 19.878906 341.316406 18.433594 341.59375 17.722656 C 341.789062 17.214844 341.859375 16.289062 341.789062 15.359375 C 341.71875 14.542969 341.664062 14.328125 341.351562 13.667969 C 340.945312 12.785156 340.582031 12.339844 339.957031 11.941406 C 339.132812 11.414062 338.597656 11.238281 337.730469 11.199219 C 337.042969 11.175781 336.839844 11.199219 336.308594 11.398438 Z M 336.308594 11.398438 " fill-opacity="1" fill-rule="nonzero"/></g><g clip-path="url(#3d884a5514)"><path fill="#000000" d="M 331.867188 72.109375 C 329.921875 72.457031 328.453125 73.769531 327.769531 75.761719 C 327.523438 76.476562 327.546875 77.917969 327.816406 78.703125 C 328.382812 80.359375 329.519531 81.484375 331.199219 82.054688 C 331.945312 82.3125 333.359375 82.285156 334.203125 82.007812 C 335.988281 81.421875 337.222656 80.003906 337.613281 78.097656 C 337.851562 76.921875 337.730469 76.046875 337.160156 74.871094 C 336.789062 74.078125 335.863281 73.101562 335.125 72.707031 C 334.203125 72.207031 332.796875 71.949219 331.867188 72.109375 Z M 331.867188 72.109375 " fill-opacity="1" fill-rule="nonzero"/></g><g clip-path="url(#0e6672619e)"><path stroke-linecap="butt" transform="matrix(1.414765, 0, 0, 1.414765, 12.029872, 3.654814)" fill="none" stroke-linejoin="miter" d="M 2.15184 48.998789 L 16.017884 48.998789 L 16.017884 38.062229 L 21.824394 38.062229 C 31.054618 38.062229 36.549127 32.945985 36.549127 24.314911 C 36.549127 15.71973 30.899998 10.603486 21.291509 10.603486 L 2.15184 10.603486 Z M 16.070344 28.467545 L 16.017884 20.200931 L 18.685068 20.200931 C 21.291509 20.200931 22.683083 21.697426 22.683083 24.314911 C 22.683083 26.971051 21.239049 28.467545 18.685068 28.467545 Z M 45.989192 49.481974 C 49.934747 49.481974 53.074072 47.397374 54.623027 44.194544 L 54.675487 44.194544 L 54.830107 44.73019 C 55.534177 47.502294 58.789467 49.586894 62.837181 49.586894 C 65.664507 49.586894 68.867337 48.949089 71.106556 47.347675 L 69.610062 41.265059 C 69.074416 41.590864 68.331691 41.853165 67.746346 41.853165 C 66.887656 41.853165 66.407232 41.21536 66.407232 40.041909 L 66.407232 32.46556 C 66.407232 24.952716 61.288226 20.30309 52.590887 20.30309 C 44.271813 20.30309 39.103108 24.46953 38.945728 31.23965 L 50.782393 31.982375 C 51.003277 29.690695 51.641082 28.310165 52.864232 28.310165 C 53.711877 28.310165 54.363488 29.00043 54.363488 30.447225 C 54.363488 31.827755 53.554497 32.36064 52.488728 32.46556 L 49.180978 32.791365 C 42.358398 33.42917 37.722578 36.358655 37.722578 41.853165 C 37.722578 46.604949 41.030328 49.481974 45.989192 49.481974 Z M 51.850923 41.748245 C 50.782393 41.748245 50.039667 41.05798 50.039667 40.041909 C 50.039667 38.87122 50.937012 38.009769 52.864232 37.85515 L 54.311027 37.750229 L 54.311027 38.545415 C 54.311027 40.525095 53.242497 41.748245 51.850923 41.748245 Z M 83.691469 61.161259 C 94.133798 61.161259 100.801758 55.456908 100.801758 46.331604 L 100.801758 21.2667 L 88.534368 21.2667 L 88.534368 36.460814 C 88.534368 38.285875 87.794404 39.404105 86.518794 39.404105 C 85.450264 39.404105 84.812459 38.388034 84.812459 36.681699 L 84.812459 21.2667 L 72.54783 21.2667 L 72.54783 39.404105 C 72.54783 45.431499 75.579474 48.998789 80.75094 48.998789 C 84.227114 48.998789 87.156599 46.707109 88.705554 42.866474 L 88.758014 42.866474 L 88.758014 45.263074 C 88.758014 48.949089 86.192989 51.290468 82.090054 51.290468 C 79.370409 51.290468 76.062659 50.445584 73.497634 48.998789 L 70.51569 58.113048 C 74.082979 60.092728 79.149525 61.161259 83.691469 61.161259 Z M 83.691469 61.161259 " stroke="#000000" stroke-width="8.599995" stroke-opacity="1" stroke-miterlimit="4"/></g><g clip-path="url(#9a5aaf5e5d)"><path stroke-linecap="butt" transform="matrix(1.414765, 0, 0, 1.414765, 12.029872, 3.654814)" fill="none" stroke-linejoin="miter" d="M 103.452376 48.998789 L 115.717005 48.998789 L 115.717005 9.002071 L 103.452376 9.002071 Z M 125.700999 49.481974 C 129.646554 49.481974 132.785879 47.397374 134.334834 44.194544 L 134.387294 44.194544 L 134.541914 44.73019 C 135.245984 47.502294 138.501274 49.586894 142.548988 49.586894 C 145.376314 49.586894 148.579143 48.949089 150.818363 47.347675 L 149.319108 41.265059 C 148.786223 41.590864 148.043498 41.853165 147.458153 41.853165 C 146.599463 41.853165 146.116278 41.21536 146.116278 40.041909 L 146.116278 32.46556 C 146.116278 24.952716 141.000033 20.30309 132.302694 20.30309 C 123.98362 20.30309 118.814915 24.46953 118.657534 31.23965 L 130.494199 31.982375 C 130.715084 29.690695 131.352889 28.310165 132.576039 28.310165 C 133.423684 28.310165 134.075294 29.00043 134.075294 30.447225 C 134.075294 31.827755 133.266304 32.36064 132.197774 32.46556 L 128.892785 32.791365 C 122.070205 33.42917 117.434385 36.358655 117.434385 41.853165 C 117.434385 46.604949 120.742135 49.481974 125.700999 49.481974 Z M 131.559969 41.748245 C 130.494199 41.748245 129.751474 41.05798 129.751474 40.041909 C 129.751474 38.87122 130.648819 38.009769 132.576039 37.85515 L 134.022834 37.750229 L 134.022834 38.545415 C 134.022834 40.525095 132.954304 41.748245 131.559969 41.748245 Z M 161.111596 49.534434 C 164.524266 49.534434 167.453751 47.670719 168.781821 43.882544 L 168.834281 43.882544 L 170.435696 48.998789 L 180.836609 48.998789 L 180.836609 9.002071 L 168.57198 9.002071 L 168.57198 26.228325 L 168.51952 26.228325 C 167.127946 22.59477 164.40554 20.733816 161.111596 20.733816 C 155.241582 20.733816 151.503106 26.123405 151.503106 35.132744 C 151.503106 44.144845 155.241582 49.534434 161.111596 49.534434 Z M 166.437681 39.404105 C 164.783806 39.404105 163.767735 37.85515 163.767735 35.132744 C 163.767735 32.4131 164.783806 30.864145 166.437681 30.864145 C 168.091556 30.864145 169.107626 32.4131 169.107626 35.132744 C 169.107626 37.85515 168.091556 39.404105 166.437681 39.404105 Z M 190.815081 49.481974 C 194.760636 49.481974 197.8972 47.397374 199.448916 44.194544 L 199.501376 44.194544 L 199.655995 44.73019 C 200.360066 47.502294 203.615356 49.586894 207.66307 49.586894 C 210.487634 49.586894 213.693225 48.949089 215.932445 47.347675 L 214.433189 41.265059 C 213.900305 41.590864 213.15758 41.853165 212.572235 41.853165 C 211.713545 41.853165 211.23036 41.21536 211.23036 40.041909 L 211.23036 32.46556 C 211.23036 24.952716 206.114115 20.30309 197.416776 20.30309 C 189.097701 20.30309 183.928997 24.46953 183.771616 31.23965 L 195.608281 31.982375 C 195.829166 29.690695 196.466971 28.310165 197.690121 28.310165 C 198.537766 28.310165 199.186615 29.00043 199.186615 30.447225 C 199.186615 31.827755 198.380386 32.36064 197.311855 32.46556 L 194.006866 32.791365 C 187.184287 33.42917 182.548467 36.358655 182.548467 41.853165 C 182.548467 46.604949 185.856217 49.481974 190.815081 49.481974 Z M 196.67405 41.748245 C 195.608281 41.748245 194.865556 41.05798 194.865556 40.041909 C 194.865556 38.87122 195.762901 38.009769 197.690121 37.85515 L 199.134155 37.750229 L 199.134155 38.545415 C 199.134155 40.525095 198.068386 41.748245 196.67405 41.748245 Z M 196.67405 41.748245 " stroke="#000000" stroke-width="8.599995" stroke-opacity="1" stroke-miterlimit="4"/></g><g fill="#00bf63" fill-opacity="1"><g transform="translate(12.051978, 72.978276)"><g><path d="M 3.019531 0 L 22.636719 0 L 22.636719 -15.46875 L 30.859375 -15.46875 C 43.910156 -15.46875 51.683594 -22.710938 51.683594 -34.933594 C 51.683594 -47.082031 43.683594 -54.324219 30.105469 -54.324219 L 3.019531 -54.324219 Z M 22.710938 -29.046875 L 22.636719 -40.742188 L 26.40625 -40.742188 C 30.105469 -40.742188 32.066406 -38.628906 32.066406 -34.933594 C 32.066406 -31.160156 30.027344 -29.046875 26.40625 -29.046875 Z M 22.710938 -29.046875 "/></g></g></g><g fill="#00bf63" fill-opacity="1"><g transform="translate(64.8646, 72.978276)"><g><path d="M 12.222656 0.679688 C 17.804688 0.679688 22.257812 -2.261719 24.445312 -6.789062 L 24.519531 -6.789062 L 24.746094 -6.035156 C 25.726562 -2.113281 30.332031 0.828125 36.066406 0.828125 C 40.0625 0.828125 44.589844 -0.0742188 47.757812 -2.339844 L 45.648438 -10.941406 C 44.890625 -10.488281 43.835938 -10.109375 43.007812 -10.109375 C 41.800781 -10.109375 41.121094 -11.015625 41.121094 -12.675781 L 41.121094 -23.390625 C 41.121094 -34.027344 33.875 -40.589844 21.578125 -40.589844 C 9.808594 -40.589844 2.488281 -34.707031 2.261719 -25.125 L 19.011719 -24.066406 C 19.316406 -27.3125 20.21875 -29.273438 21.957031 -29.273438 C 23.164062 -29.273438 24.066406 -28.292969 24.066406 -26.257812 C 24.066406 -24.292969 22.9375 -23.539062 21.425781 -23.390625 L 16.75 -22.9375 C 7.09375 -22.03125 0.527344 -17.882812 0.527344 -10.109375 C 0.527344 -3.394531 5.207031 0.679688 12.222656 0.679688 Z M 20.523438 -10.261719 C 19.011719 -10.261719 17.957031 -11.242188 17.957031 -12.675781 C 17.957031 -14.335938 19.238281 -15.542969 21.957031 -15.769531 L 23.992188 -15.917969 L 23.992188 -14.789062 C 23.992188 -11.996094 22.484375 -10.261719 20.523438 -10.261719 Z M 20.523438 -10.261719 "/></g></g></g><g fill="#00bf63" fill-opacity="1"><g transform="translate(112.622316, 72.978276)"><g><path d="M 17.804688 17.203125 C 32.59375 17.203125 42.023438 9.128906 42.023438 -3.773438 L 42.023438 -39.234375 L 24.671875 -39.234375 L 24.671875 -17.730469 C 24.671875 -15.164062 23.617188 -13.582031 21.804688 -13.582031 C 20.296875 -13.582031 19.390625 -15.015625 19.390625 -17.429688 L 19.390625 -39.234375 L 2.039062 -39.234375 L 2.039062 -13.582031 C 2.039062 -5.054688 6.335938 0 13.65625 0 C 18.5625 0 22.710938 -3.246094 24.898438 -8.675781 L 24.972656 -8.675781 L 24.972656 -5.28125 C 24.972656 -0.0742188 21.351562 3.246094 15.542969 3.246094 C 11.695312 3.246094 7.015625 2.039062 3.394531 0 L -0.828125 12.902344 C 4.226562 15.695312 11.394531 17.203125 17.804688 17.203125 Z M 17.804688 17.203125 "/></g></g></g><g fill="#ffffff" fill-opacity="1"><g transform="translate(156.5127, 72.978276)"><g><path d="M 1.886719 0 L 19.238281 0 L 19.238281 -56.585938 L 1.886719 -56.585938 Z M 1.886719 0 "/></g></g></g><g fill="#ffffff" fill-opacity="1"><g transform="translate(177.637758, 72.978276)"><g><path d="M 12.222656 0.679688 C 17.804688 0.679688 22.257812 -2.261719 24.445312 -6.789062 L 24.519531 -6.789062 L 24.746094 -6.035156 C 25.726562 -2.113281 30.332031 0.828125 36.066406 0.828125 C 40.0625 0.828125 44.589844 -0.0742188 47.757812 -2.339844 L 45.648438 -10.941406 C 44.890625 -10.488281 43.835938 -10.109375 43.007812 -10.109375 C 41.800781 -10.109375 41.121094 -11.015625 41.121094 -12.675781 L 41.121094 -23.390625 C 41.121094 -34.027344 33.875 -40.589844 21.578125 -40.589844 C 9.808594 -40.589844 2.488281 -34.707031 2.261719 -25.125 L 19.011719 -24.066406 C 19.316406 -27.3125 20.21875 -29.273438 21.957031 -29.273438 C 23.164062 -29.273438 24.066406 -28.292969 24.066406 -26.257812 C 24.066406 -24.292969 22.9375 -23.539062 21.425781 -23.390625 L 16.75 -22.9375 C 7.09375 -22.03125 0.527344 -17.882812 0.527344 -10.109375 C 0.527344 -3.394531 5.207031 0.679688 12.222656 0.679688 Z M 20.523438 -10.261719 C 19.011719 -10.261719 17.957031 -11.242188 17.957031 -12.675781 C 17.957031 -14.335938 19.238281 -15.542969 21.957031 -15.769531 L 23.992188 -15.917969 L 23.992188 -14.789062 C 23.992188 -11.996094 22.484375 -10.261719 20.523438 -10.261719 Z M 20.523438 -10.261719 "/></g></g></g><g fill="#ffffff" fill-opacity="1"><g transform="translate(225.395474, 72.978276)"><g><path d="M 14.5625 0.753906 C 19.390625 0.753906 23.539062 -1.886719 25.425781 -7.242188 L 25.5 -7.242188 L 27.765625 0 L 42.476562 0 L 42.476562 -56.585938 L 25.125 -56.585938 L 25.125 -32.21875 L 25.050781 -32.21875 C 23.085938 -37.347656 19.238281 -39.988281 14.5625 -39.988281 C 6.261719 -39.988281 0.980469 -32.367188 0.980469 -19.617188 C 0.980469 -6.867188 6.261719 0.753906 14.5625 0.753906 Z M 22.105469 -13.582031 C 19.769531 -13.582031 18.335938 -15.769531 18.335938 -19.617188 C 18.335938 -23.464844 19.769531 -25.652344 22.105469 -25.652344 C 24.445312 -25.652344 25.878906 -23.464844 25.878906 -19.617188 C 25.878906 -15.769531 24.445312 -13.582031 22.105469 -13.582031 Z M 22.105469 -13.582031 "/></g></g></g><g fill="#ffffff" fill-opacity="1"><g transform="translate(269.758087, 72.978276)"><g><path d="M 12.222656 0.679688 C 17.804688 0.679688 22.257812 -2.261719 24.445312 -6.789062 L 24.519531 -6.789062 L 24.746094 -6.035156 C 25.726562 -2.113281 30.332031 0.828125 36.066406 0.828125 C 40.0625 0.828125 44.589844 -0.0742188 47.757812 -2.339844 L 45.648438 -10.941406 C 44.890625 -10.488281 43.835938 -10.109375 43.007812 -10.109375 C 41.800781 -10.109375 41.121094 -11.015625 41.121094 -12.675781 L 41.121094 -23.390625 C 41.121094 -34.027344 33.875 -40.589844 21.578125 -40.589844 C 9.808594 -40.589844 2.488281 -34.707031 2.261719 -25.125 L 19.011719 -24.066406 C 19.316406 -27.3125 20.21875 -29.273438 21.957031 -29.273438 C 23.164062 -29.273438 24.066406 -28.292969 24.066406 -26.257812 C 24.066406 -24.292969 22.9375 -23.539062 21.425781 -23.390625 L 16.75 -22.9375 C 7.09375 -22.03125 0.527344 -17.882812 0.527344 -10.109375 C 0.527344 -3.394531 5.207031 0.679688 12.222656 0.679688 Z M 20.523438 -10.261719 C 19.011719 -10.261719 17.957031 -11.242188 17.957031 -12.675781 C 17.957031 -14.335938 19.238281 -15.542969 21.957031 -15.769531 L 23.992188 -15.917969 L 23.992188 -14.789062 C 23.992188 -11.996094 22.484375 -10.261719 20.523438 -10.261719 Z M 20.523438 -10.261719 "/></g></g></g></svg>